<svg xmlns="http://www.w3.org/2000/svg" xmlns:xlink="http://www.w3.org/1999/xlink" width="500" zoomAndPan="magnify" viewBox="0 0 375 374.999991" height="500" preserveAspectRatio="xMidYMid meet" version="1.0"><defs><clipPath id="76c8589961"><path d="M 2.550781 2.550781 L 372.300781 2.550781 L 372.300781 372.300781 L 2.550781 372.300781 Z M 2.550781 2.550781 " clip-rule="nonzero"/></clipPath><clipPath id="5ca08da850"><path d="M 20.210938 20.210938 L 354.710938 20.210938 L 354.710938 354.710938 L 20.210938 354.710938 Z M 20.210938 20.210938 " clip-rule="nonzero"/></clipPath><clipPath id="d919f4dfac"><path d="M 113 125 L 265 125 L 265 314.511719 L 113 314.511719 Z M 113 125 " clip-rule="nonzero"/></clipPath><clipPath id="89629add1a"><path d="M 104.636719 67 L 256 67 L 256 255 L 104.636719 255 Z M 104.636719 67 " clip-rule="nonzero"/></clipPath></defs><g clip-path="url(#76c8589961)"><path fill="#ffffff" d="M 372.300781 187.425781 C 372.300781 190.453125 372.226562 193.476562 372.078125 196.496094 C 371.929688 199.519531 371.707031 202.535156 371.410156 205.546875 C 371.113281 208.558594 370.746094 211.558594 370.300781 214.554688 C 369.855469 217.546875 369.339844 220.527344 368.75 223.492188 C 368.160156 226.460938 367.496094 229.414062 366.761719 232.347656 C 366.027344 235.28125 365.21875 238.199219 364.339844 241.09375 C 363.460938 243.988281 362.511719 246.859375 361.496094 249.707031 C 360.476562 252.558594 359.386719 255.378906 358.230469 258.175781 C 357.070312 260.96875 355.84375 263.734375 354.550781 266.46875 C 353.257812 269.207031 351.898438 271.90625 350.472656 274.574219 C 349.046875 277.246094 347.554688 279.875 346 282.472656 C 344.445312 285.066406 342.824219 287.621094 341.144531 290.136719 C 339.464844 292.652344 337.722656 295.125 335.917969 297.554688 C 334.117188 299.988281 332.257812 302.371094 330.335938 304.710938 C 328.417969 307.046875 326.441406 309.339844 324.410156 311.582031 C 322.378906 313.824219 320.292969 316.011719 318.152344 318.152344 C 316.011719 320.292969 313.824219 322.378906 311.582031 324.410156 C 309.339844 326.441406 307.046875 328.417969 304.710938 330.335938 C 302.371094 332.257812 299.988281 334.117188 297.554688 335.917969 C 295.125 337.722656 292.652344 339.464844 290.136719 341.144531 C 287.621094 342.824219 285.066406 344.445312 282.472656 346 C 279.875 347.554688 277.246094 349.046875 274.574219 350.472656 C 271.90625 351.898438 269.207031 353.257812 266.46875 354.550781 C 263.734375 355.84375 260.96875 357.070312 258.175781 358.230469 C 255.378906 359.386719 252.558594 360.476562 249.707031 361.496094 C 246.859375 362.511719 243.988281 363.460938 241.09375 364.339844 C 238.199219 365.21875 235.28125 366.027344 232.347656 366.761719 C 229.414062 367.496094 226.460938 368.160156 223.492188 368.75 C 220.527344 369.339844 217.546875 369.855469 214.554688 370.300781 C 211.558594 370.746094 208.558594 371.113281 205.546875 371.410156 C 202.535156 371.707031 199.519531 371.929688 196.496094 372.078125 C 193.476562 372.226562 190.453125 372.300781 187.425781 372.300781 C 184.402344 372.300781 181.378906 372.226562 178.355469 372.078125 C 175.332031 371.929688 172.316406 371.707031 169.304688 371.410156 C 166.292969 371.113281 163.292969 370.746094 160.300781 370.300781 C 157.308594 369.855469 154.328125 369.339844 151.359375 368.75 C 148.390625 368.160156 145.441406 367.496094 142.503906 366.761719 C 139.570312 366.027344 136.65625 365.21875 133.761719 364.339844 C 130.863281 363.460938 127.992188 362.511719 125.144531 361.496094 C 122.296875 360.476562 119.472656 359.386719 116.679688 358.230469 C 113.882812 357.070312 111.117188 355.84375 108.382812 354.550781 C 105.648438 353.257812 102.945312 351.898438 100.277344 350.472656 C 97.609375 349.046875 94.976562 347.554688 92.382812 346 C 89.785156 344.445312 87.230469 342.824219 84.714844 341.144531 C 82.199219 339.464844 79.726562 337.722656 77.296875 335.917969 C 74.867188 334.117188 72.480469 332.257812 70.144531 330.335938 C 67.804688 328.417969 65.515625 326.441406 63.273438 324.410156 C 61.03125 322.378906 58.839844 320.292969 56.699219 318.152344 C 54.5625 316.011719 52.476562 313.824219 50.441406 311.582031 C 48.410156 309.339844 46.4375 307.046875 44.515625 304.710938 C 42.597656 302.371094 40.734375 299.988281 38.933594 297.554688 C 37.132812 295.125 35.390625 292.652344 33.707031 290.136719 C 32.027344 287.621094 30.410156 285.066406 28.855469 282.472656 C 27.296875 279.875 25.808594 277.246094 24.382812 274.574219 C 22.953125 271.90625 21.59375 269.207031 20.300781 266.46875 C 19.007812 263.734375 17.78125 260.96875 16.625 258.175781 C 15.464844 255.378906 14.378906 252.558594 13.359375 249.707031 C 12.339844 246.859375 11.390625 243.988281 10.511719 241.09375 C 9.632812 238.199219 8.828125 235.28125 8.09375 232.347656 C 7.355469 229.414062 6.695312 226.460938 6.105469 223.492188 C 5.511719 220.527344 4.996094 217.546875 4.550781 214.554688 C 4.109375 211.558594 3.738281 208.558594 3.441406 205.546875 C 3.144531 202.535156 2.921875 199.519531 2.773438 196.496094 C 2.625 193.476562 2.550781 190.453125 2.550781 187.425781 C 2.550781 184.402344 2.625 181.378906 2.773438 178.355469 C 2.921875 175.332031 3.144531 172.316406 3.441406 169.304688 C 3.738281 166.292969 4.109375 163.292969 4.550781 160.300781 C 4.996094 157.308594 5.511719 154.328125 6.105469 151.359375 C 6.695312 148.390625 7.355469 145.441406 8.09375 142.503906 C 8.828125 139.570312 9.632812 136.65625 10.511719 133.761719 C 11.390625 130.863281 12.339844 127.992188 13.359375 125.144531 C 14.378906 122.296875 15.464844 119.472656 16.625 116.679688 C 17.78125 113.882812 19.007812 111.117188 20.300781 108.382812 C 21.59375 105.648438 22.953125 102.945312 24.382812 100.277344 C 25.808594 97.609375 27.296875 94.976562 28.855469 92.382812 C 30.410156 89.785156 32.027344 87.230469 33.707031 84.714844 C 35.390625 82.199219 37.132812 79.726562 38.933594 77.296875 C 40.734375 74.867188 42.597656 72.480469 44.515625 70.144531 C 46.4375 67.804688 48.410156 65.515625 50.441406 63.273438 C 52.476562 61.03125 54.5625 58.839844 56.699219 56.699219 C 58.839844 54.5625 61.03125 52.476562 63.273438 50.441406 C 65.515625 48.410156 67.804688 46.4375 70.144531 44.515625 C 72.480469 42.597656 74.867188 40.734375 77.296875 38.933594 C 79.726562 37.132812 82.199219 35.390625 84.714844 33.707031 C 87.230469 32.027344 89.785156 30.410156 92.382812 28.855469 C 94.976562 27.296875 97.609375 25.808594 100.277344 24.382812 C 102.945312 22.953125 105.648438 21.59375 108.382812 20.300781 C 111.117188 19.007812 113.882812 17.78125 116.679688 16.625 C 119.472656 15.464844 122.296875 14.378906 125.144531 13.359375 C 127.992188 12.339844 130.863281 11.390625 133.761719 10.511719 C 136.65625 9.632812 139.570312 8.828125 142.503906 8.09375 C 145.441406 7.355469 148.390625 6.695312 151.359375 6.105469 C 154.328125 5.511719 157.308594 4.996094 160.300781 4.550781 C 163.292969 4.109375 166.292969 3.738281 169.304688 3.441406 C 172.316406 3.144531 175.332031 2.921875 178.355469 2.773438 C 181.378906 2.625 184.402344 2.550781 187.425781 2.550781 C 190.453125 2.550781 193.476562 2.625 196.496094 2.773438 C 199.519531 2.921875 202.535156 3.144531 205.546875 3.441406 C 208.558594 3.738281 211.558594 4.109375 214.554688 4.550781 C 217.546875 4.996094 220.527344 5.511719 223.492188 6.105469 C 226.460938 6.695312 229.414062 7.355469 232.347656 8.09375 C 235.28125 8.828125 238.199219 9.632812 241.09375 10.511719 C 243.988281 11.390625 246.859375 12.339844 249.707031 13.359375 C 252.558594 14.378906 255.378906 15.464844 258.175781 16.625 C 260.96875 17.78125 263.734375 19.007812 266.472656 20.300781 C 269.207031 21.59375 271.90625 22.953125 274.574219 24.382812 C 277.246094 25.808594 279.875 27.296875 282.472656 28.855469 C 285.066406 30.410156 287.621094 32.027344 290.136719 33.707031 C 292.652344 35.390625 295.125 37.132812 297.554688 38.933594 C 299.988281 40.734375 302.371094 42.597656 304.710938 44.515625 C 307.046875 46.4375 309.339844 48.410156 311.582031 50.441406 C 313.824219 52.476562 316.011719 54.5625 318.152344 56.699219 C 320.292969 58.839844 322.378906 61.03125 324.410156 63.273438 C 326.441406 65.515625 328.417969 67.804688 330.335938 70.144531 C 332.257812 72.480469 334.117188 74.867188 335.917969 77.296875 C 337.722656 79.726562 339.464844 82.199219 341.144531 84.714844 C 342.824219 87.230469 344.445312 89.785156 346 92.382812 C 347.554688 94.976562 349.046875 97.609375 350.472656 100.277344 C 351.898438 102.945312 353.257812 105.648438 354.550781 108.382812 C 355.84375 111.117188 357.070312 113.882812 358.230469 116.679688 C 359.386719 119.472656 360.476562 122.296875 361.496094 125.144531 C 362.511719 127.992188 363.460938 130.863281 364.339844 133.761719 C 365.21875 136.65625 366.027344 139.570312 366.761719 142.503906 C 367.496094 145.441406 368.160156 148.390625 368.75 151.359375 C 369.339844 154.328125 369.855469 157.308594 370.300781 160.300781 C 370.746094 163.292969 371.113281 166.292969 371.410156 169.304688 C 371.707031 172.316406 371.929688 175.332031 372.078125 178.355469 C 372.226562 181.378906 372.300781 184.402344 372.300781 187.425781 Z M 372.300781 187.425781 " fill-opacity="1" fill-rule="nonzero"/></g><g clip-path="url(#5ca08da850)"><path fill="#6366f1" d="M 354.710938 187.460938 C 354.710938 190.195312 354.640625 192.933594 354.507812 195.667969 C 354.375 198.398438 354.171875 201.128906 353.902344 203.851562 C 353.636719 206.578125 353.300781 209.292969 352.898438 212 C 352.496094 214.707031 352.03125 217.402344 351.496094 220.089844 C 350.960938 222.773438 350.363281 225.441406 349.699219 228.097656 C 349.03125 230.753906 348.300781 233.390625 347.507812 236.011719 C 346.714844 238.628906 345.855469 241.226562 344.933594 243.804688 C 344.011719 246.382812 343.027344 248.933594 341.976562 251.464844 C 340.929688 253.992188 339.820312 256.492188 338.652344 258.96875 C 337.480469 261.441406 336.25 263.886719 334.960938 266.300781 C 333.671875 268.714844 332.320312 271.09375 330.914062 273.441406 C 329.507812 275.792969 328.042969 278.101562 326.523438 280.378906 C 325.003906 282.65625 323.425781 284.890625 321.796875 287.089844 C 320.164062 289.289062 318.480469 291.445312 316.746094 293.5625 C 315.007812 295.679688 313.222656 297.75 311.382812 299.777344 C 309.546875 301.804688 307.660156 303.789062 305.722656 305.722656 C 303.789062 307.660156 301.804688 309.546875 299.777344 311.382812 C 297.75 313.222656 295.679688 315.007812 293.5625 316.746094 C 291.445312 318.480469 289.289062 320.164062 287.089844 321.796875 C 284.890625 323.425781 282.65625 325.003906 280.378906 326.523438 C 278.101562 328.042969 275.792969 329.507812 273.441406 330.914062 C 271.09375 332.320312 268.714844 333.671875 266.300781 334.960938 C 263.886719 336.25 261.441406 337.480469 258.96875 338.652344 C 256.492188 339.820312 253.992188 340.929688 251.464844 341.976562 C 248.933594 343.027344 246.382812 344.011719 243.804688 344.933594 C 241.226562 345.855469 238.628906 346.714844 236.007812 347.507812 C 233.390625 348.300781 230.753906 349.03125 228.097656 349.699219 C 225.441406 350.363281 222.773438 350.960938 220.089844 351.496094 C 217.402344 352.03125 214.707031 352.496094 212 352.898438 C 209.292969 353.300781 206.578125 353.636719 203.851562 353.902344 C 201.128906 354.171875 198.398438 354.375 195.667969 354.507812 C 192.933594 354.640625 190.195312 354.710938 187.460938 354.710938 C 184.722656 354.710938 181.988281 354.640625 179.253906 354.507812 C 176.519531 354.375 173.789062 354.171875 171.066406 353.90625 C 168.34375 353.636719 165.625 353.300781 162.917969 352.898438 C 160.210938 352.496094 157.515625 352.03125 154.832031 351.496094 C 152.144531 350.960938 149.476562 350.363281 146.820312 349.699219 C 144.167969 349.03125 141.527344 348.300781 138.910156 347.507812 C 136.289062 346.714844 133.691406 345.855469 131.113281 344.933594 C 128.539062 344.011719 125.984375 343.027344 123.457031 341.976562 C 120.925781 340.929688 118.425781 339.820312 115.949219 338.652344 C 113.476562 337.480469 111.03125 336.25 108.617188 334.960938 C 106.203125 333.671875 103.824219 332.320312 101.476562 330.914062 C 99.128906 329.507812 96.816406 328.042969 94.539062 326.523438 C 92.265625 325.003906 90.027344 323.425781 87.828125 321.796875 C 85.628906 320.164062 83.472656 318.480469 81.355469 316.746094 C 79.242188 315.007812 77.167969 313.222656 75.140625 311.382812 C 73.113281 309.546875 71.132812 307.660156 69.195312 305.722656 C 67.261719 303.789062 65.375 301.804688 63.535156 299.777344 C 61.699219 297.75 59.910156 295.679688 58.171875 293.5625 C 56.4375 291.445312 54.753906 289.289062 53.125 287.089844 C 51.492188 284.890625 49.917969 282.65625 48.394531 280.378906 C 46.875 278.101562 45.410156 275.792969 44.003906 273.441406 C 42.597656 271.09375 41.25 268.714844 39.957031 266.300781 C 38.667969 263.886719 37.4375 261.441406 36.265625 258.96875 C 35.097656 256.492188 33.988281 253.992188 32.941406 251.464844 C 31.894531 248.933594 30.910156 246.382812 29.988281 243.804688 C 29.0625 241.226562 28.207031 238.628906 27.410156 236.007812 C 26.617188 233.390625 25.886719 230.753906 25.222656 228.097656 C 24.558594 225.441406 23.957031 222.773438 23.421875 220.089844 C 22.890625 217.402344 22.421875 214.707031 22.019531 212 C 21.617188 209.292969 21.285156 206.578125 21.015625 203.851562 C 20.746094 201.128906 20.546875 198.398438 20.410156 195.667969 C 20.277344 192.933594 20.210938 190.195312 20.210938 187.460938 C 20.210938 184.722656 20.277344 181.988281 20.410156 179.253906 C 20.546875 176.519531 20.746094 173.789062 21.015625 171.066406 C 21.285156 168.34375 21.617188 165.625 22.019531 162.917969 C 22.421875 160.210938 22.890625 157.515625 23.421875 154.832031 C 23.957031 152.144531 24.558594 149.476562 25.222656 146.820312 C 25.886719 144.167969 26.617188 141.527344 27.410156 138.910156 C 28.207031 136.289062 29.0625 133.691406 29.988281 131.113281 C 30.910156 128.539062 31.894531 125.984375 32.941406 123.457031 C 33.988281 120.925781 35.097656 118.425781 36.265625 115.949219 C 37.4375 113.476562 38.667969 111.03125 39.957031 108.617188 C 41.25 106.203125 42.597656 103.824219 44.003906 101.476562 C 45.410156 99.128906 46.875 96.816406 48.394531 94.539062 C 49.917969 92.265625 51.492188 90.027344 53.125 87.828125 C 54.753906 85.628906 56.4375 83.472656 58.171875 81.355469 C 59.910156 79.242188 61.699219 77.167969 63.535156 75.140625 C 65.375 73.113281 67.261719 71.132812 69.195312 69.195312 C 71.132812 67.261719 73.113281 65.375 75.140625 63.535156 C 77.167969 61.699219 79.242188 59.910156 81.355469 58.171875 C 83.472656 56.4375 85.628906 54.753906 87.828125 53.125 C 90.027344 51.492188 92.265625 49.917969 94.539062 48.394531 C 96.816406 46.875 99.128906 45.410156 101.476562 44.003906 C 103.824219 42.597656 106.203125 41.25 108.617188 39.957031 C 111.03125 38.667969 113.476562 37.4375 115.949219 36.265625 C 118.425781 35.097656 120.925781 33.988281 123.457031 32.941406 C 125.984375 31.894531 128.539062 30.910156 131.113281 29.988281 C 133.691406 29.0625 136.289062 28.207031 138.910156 27.410156 C 141.527344 26.617188 144.167969 25.886719 146.820312 25.222656 C 149.476562 24.558594 152.144531 23.957031 154.832031 23.421875 C 157.515625 22.890625 160.210938 22.421875 162.917969 22.019531 C 165.625 21.617188 168.34375 21.285156 171.066406 21.015625 C 173.789062 20.746094 176.519531 20.546875 179.253906 20.410156 C 181.988281 20.277344 184.722656 20.210938 187.460938 20.210938 C 190.195312 20.210938 192.933594 20.277344 195.667969 20.410156 C 198.398438 20.546875 201.128906 20.746094 203.851562 21.015625 C 206.578125 21.285156 209.292969 21.617188 212 22.019531 C 214.707031 22.421875 217.402344 22.890625 220.089844 23.421875 C 222.773438 23.957031 225.441406 24.558594 228.097656 25.222656 C 230.753906 25.886719 233.390625 26.617188 236.011719 27.410156 C 238.628906 28.207031 241.226562 29.0625 243.804688 29.988281 C 246.382812 30.910156 248.933594 31.894531 251.464844 32.941406 C 253.992188 33.988281 256.492188 35.097656 258.96875 36.265625 C 261.441406 37.4375 263.886719 38.667969 266.300781 39.957031 C 268.714844 41.25 271.09375 42.597656 273.441406 44.003906 C 275.792969 45.410156 278.101562 46.875 280.378906 48.394531 C 282.65625 49.917969 284.890625 51.492188 287.089844 53.125 C 289.289062 54.753906 291.445312 56.4375 293.5625 58.171875 C 295.679688 59.910156 297.75 61.699219 299.777344 63.535156 C 301.804688 65.375 303.789062 67.261719 305.722656 69.195312 C 307.660156 71.132812 309.546875 73.113281 311.382812 75.140625 C 313.222656 77.167969 315.007812 79.242188 316.746094 81.355469 C 318.480469 83.472656 320.164062 85.628906 321.796875 87.828125 C 323.425781 90.027344 325.003906 92.265625 326.523438 94.539062 C 328.042969 96.816406 329.507812 99.128906 330.914062 101.476562 C 332.320312 103.824219 333.671875 106.203125 334.960938 108.617188 C 336.25 111.03125 337.480469 113.476562 338.652344 115.949219 C 339.820312 118.425781 340.929688 120.925781 341.976562 123.457031 C 343.027344 125.984375 344.011719 128.539062 344.933594 131.113281 C 345.855469 133.691406 346.714844 136.289062 347.507812 138.910156 C 348.300781 141.527344 349.03125 144.167969 349.699219 146.820312 C 350.363281 149.476562 350.960938 152.144531 351.496094 154.832031 C 352.03125 157.515625 352.496094 160.210938 352.898438 162.917969 C 353.300781 165.625 353.636719 168.34375 353.90625 171.066406 C 354.171875 173.789062 354.375 176.519531 354.507812 179.253906 C 354.640625 181.988281 354.710938 184.722656 354.710938 187.460938 Z M 354.710938 187.460938 " fill-opacity="1" fill-rule="nonzero"/></g><g clip-path="url(#d919f4dfac)"><path fill="#ffffff" d="M 179.324219 314.023438 C 155.535156 313.082031 132.871094 299.859375 117.425781 274.554688 C 111.019531 264.066406 112.515625 255.09375 120.769531 249.777344 C 128.90625 244.542969 137.742188 247.335938 144.101562 257.914062 C 154.894531 275.875 170.613281 284.394531 191.335938 282.164062 C 210.59375 280.085938 223.941406 269.136719 230.265625 250.992188 C 237.152344 231.257812 231.789062 214.046875 216.964844 199.554688 C 202.046875 184.96875 187.121094 170.390625 172.375 155.640625 C 162.832031 146.097656 161.855469 137.152344 169.113281 130.171875 C 176.140625 123.421875 184.828125 124.191406 193.933594 132.980469 C 210.417969 148.886719 227.335938 164.417969 242.882812 181.207031 C 265.957031 206.136719 270.425781 235.382812 257.960938 266.65625 C 246.484375 295.453125 216.773438 314.242188 179.324219 314.023438 Z M 179.324219 314.023438 " fill-opacity="1" fill-rule="nonzero"/></g><g clip-path="url(#89629add1a)"><path fill="#ffffff" d="M 104.765625 146.699219 C 104.648438 110.417969 127.6875 79.683594 162.226562 70.070312 C 196.378906 60.5625 233.355469 75.480469 251.121094 105.933594 C 257.796875 117.378906 256.78125 126.449219 248.242188 131.710938 C 239.6875 136.980469 231.371094 133.832031 224.304688 122.320312 C 213.871094 105.320312 198.535156 97.363281 178.917969 99.039062 C 159.65625 100.679688 146.042969 111.269531 139.324219 129.328125 C 132.246094 148.335938 136.253906 165.640625 150.542969 180.097656 C 166.347656 196.089844 182.75 211.496094 198.4375 227.597656 C 208.050781 237.464844 206.113281 251.445312 194.511719 254.125 C 189.199219 255.355469 181.066406 253.273438 177.019531 249.601562 C 159.15625 233.414062 141.957031 216.4375 125.207031 199.085938 C 111.277344 184.65625 104.964844 166.730469 104.765625 146.699219 Z M 104.765625 146.699219 " fill-opacity="1" fill-rule="nonzero"/></g></svg>