<svg xmlns="http://www.w3.org/2000/svg" xmlns:xlink="http://www.w3.org/1999/xlink" width="500" zoomAndPan="magnify" viewBox="0 0 375 374.999991" height="500" preserveAspectRatio="xMidYMid meet" version="1.0"><defs><clipPath id="d4f7d98830"><path d="M 5.203125 5.203125 L 369.703125 5.203125 L 369.703125 369.703125 L 5.203125 369.703125 Z M 5.203125 5.203125 " clip-rule="nonzero"/></clipPath><clipPath id="9475f2786a"><path d="M 111.621094 77 L 250 77 L 250 250 L 111.621094 250 Z M 111.621094 77 " clip-rule="nonzero"/></clipPath></defs><g clip-path="url(#d4f7d98830)"><path fill="#6366f1" d="M 369.703125 187.453125 C 369.703125 190.4375 369.632812 193.417969 369.484375 196.398438 C 369.339844 199.375 369.117188 202.351562 368.828125 205.316406 C 368.535156 208.285156 368.167969 211.246094 367.730469 214.195312 C 367.292969 217.144531 366.785156 220.085938 366.203125 223.007812 C 365.621094 225.933594 364.96875 228.84375 364.242188 231.738281 C 363.519531 234.628906 362.722656 237.503906 361.855469 240.359375 C 360.992188 243.214844 360.054688 246.042969 359.050781 248.851562 C 358.046875 251.660156 356.972656 254.441406 355.832031 257.199219 C 354.691406 259.953125 353.480469 262.679688 352.207031 265.375 C 350.929688 268.074219 349.589844 270.734375 348.183594 273.367188 C 346.777344 275.996094 345.308594 278.589844 343.773438 281.148438 C 342.242188 283.707031 340.648438 286.226562 338.988281 288.707031 C 337.332031 291.1875 335.617188 293.625 333.839844 296.019531 C 332.0625 298.417969 330.226562 300.765625 328.335938 303.074219 C 326.441406 305.378906 324.496094 307.636719 322.492188 309.847656 C 320.488281 312.054688 318.433594 314.214844 316.324219 316.324219 C 314.214844 318.433594 312.054688 320.488281 309.847656 322.492188 C 307.636719 324.496094 305.378906 326.441406 303.074219 328.335938 C 300.765625 330.226562 298.417969 332.0625 296.019531 333.839844 C 293.625 335.617188 291.1875 337.332031 288.707031 338.988281 C 286.226562 340.648438 283.707031 342.242188 281.148438 343.773438 C 278.589844 345.308594 275.996094 346.777344 273.367188 348.183594 C 270.734375 349.589844 268.074219 350.929688 265.375 352.207031 C 262.679688 353.480469 259.953125 354.691406 257.199219 355.832031 C 254.441406 356.972656 251.660156 358.046875 248.851562 359.050781 C 246.042969 360.054688 243.214844 360.992188 240.359375 361.855469 C 237.503906 362.722656 234.628906 363.519531 231.738281 364.242188 C 228.84375 364.96875 225.933594 365.621094 223.007812 366.203125 C 220.085938 366.785156 217.144531 367.292969 214.195312 367.730469 C 211.246094 368.167969 208.285156 368.535156 205.316406 368.828125 C 202.351562 369.117188 199.375 369.339844 196.398438 369.484375 C 193.417969 369.632812 190.4375 369.703125 187.453125 369.703125 C 184.472656 369.703125 181.492188 369.632812 178.511719 369.484375 C 175.53125 369.339844 172.558594 369.121094 169.589844 368.828125 C 166.621094 368.535156 163.664062 368.167969 160.710938 367.730469 C 157.761719 367.292969 154.824219 366.785156 151.898438 366.203125 C 148.972656 365.621094 146.066406 364.96875 143.171875 364.242188 C 140.277344 363.519531 137.402344 362.722656 134.550781 361.855469 C 131.695312 360.992188 128.863281 360.054688 126.054688 359.050781 C 123.246094 358.046875 120.464844 356.972656 117.710938 355.832031 C 114.953125 354.691406 112.230469 353.480469 109.53125 352.207031 C 106.835938 350.929688 104.171875 349.589844 101.542969 348.183594 C 98.910156 346.777344 96.316406 345.308594 93.757812 343.773438 C 91.199219 342.242188 88.683594 340.648438 86.203125 338.988281 C 83.722656 337.332031 81.285156 335.617188 78.886719 333.839844 C 76.492188 332.0625 74.140625 330.226562 71.835938 328.335938 C 69.53125 326.441406 67.273438 324.496094 65.0625 322.492188 C 62.851562 320.488281 60.691406 318.433594 58.585938 316.324219 C 56.476562 314.214844 54.417969 312.054688 52.414062 309.847656 C 50.414062 307.636719 48.464844 305.378906 46.574219 303.074219 C 44.679688 300.765625 42.847656 298.417969 41.070312 296.019531 C 39.292969 293.625 37.574219 291.1875 35.917969 288.707031 C 34.261719 286.226562 32.667969 283.707031 31.132812 281.148438 C 29.601562 278.589844 28.128906 275.996094 26.722656 273.367188 C 25.316406 270.734375 23.976562 268.074219 22.703125 265.375 C 21.425781 262.679688 20.21875 259.953125 19.078125 257.199219 C 17.9375 254.441406 16.863281 251.660156 15.859375 248.851562 C 14.851562 246.042969 13.917969 243.214844 13.050781 240.359375 C 12.1875 237.503906 11.390625 234.628906 10.667969 231.738281 C 9.941406 228.84375 9.289062 225.933594 8.707031 223.007812 C 8.125 220.085938 7.613281 217.144531 7.175781 214.195312 C 6.738281 211.246094 6.375 208.285156 6.082031 205.316406 C 5.789062 202.351562 5.570312 199.375 5.425781 196.398438 C 5.277344 193.417969 5.203125 190.4375 5.203125 187.453125 C 5.203125 184.472656 5.277344 181.492188 5.425781 178.511719 C 5.570312 175.53125 5.789062 172.558594 6.082031 169.589844 C 6.375 166.621094 6.738281 163.664062 7.175781 160.710938 C 7.613281 157.761719 8.125 154.824219 8.707031 151.898438 C 9.289062 148.972656 9.941406 146.066406 10.667969 143.171875 C 11.390625 140.277344 12.1875 137.402344 13.050781 134.550781 C 13.917969 131.695312 14.851562 128.863281 15.859375 126.054688 C 16.863281 123.246094 17.9375 120.464844 19.078125 117.710938 C 20.21875 114.953125 21.425781 112.230469 22.703125 109.53125 C 23.976562 106.835938 25.316406 104.171875 26.722656 101.542969 C 28.128906 98.910156 29.601562 96.316406 31.132812 93.757812 C 32.667969 91.199219 34.261719 88.683594 35.917969 86.203125 C 37.574219 83.722656 39.292969 81.285156 41.070312 78.886719 C 42.847656 76.492188 44.679688 74.140625 46.574219 71.835938 C 48.464844 69.53125 50.414062 67.273438 52.417969 65.0625 C 54.417969 62.851562 56.476562 60.691406 58.585938 58.585938 C 60.691406 56.476562 62.851562 54.417969 65.0625 52.417969 C 67.273438 50.414062 69.53125 48.464844 71.835938 46.574219 C 74.140625 44.679688 76.492188 42.847656 78.886719 41.070312 C 81.285156 39.292969 83.722656 37.574219 86.203125 35.917969 C 88.683594 34.261719 91.199219 32.667969 93.757812 31.132812 C 96.316406 29.601562 98.910156 28.128906 101.542969 26.722656 C 104.171875 25.316406 106.835938 23.976562 109.53125 22.703125 C 112.230469 21.425781 114.953125 20.21875 117.710938 19.078125 C 120.464844 17.9375 123.246094 16.863281 126.054688 15.859375 C 128.863281 14.851562 131.695312 13.917969 134.550781 13.050781 C 137.402344 12.1875 140.277344 11.390625 143.171875 10.667969 C 146.066406 9.941406 148.972656 9.289062 151.898438 8.707031 C 154.824219 8.125 157.761719 7.613281 160.710938 7.175781 C 163.664062 6.738281 166.621094 6.375 169.589844 6.082031 C 172.558594 5.789062 175.53125 5.570312 178.511719 5.425781 C 181.492188 5.277344 184.472656 5.203125 187.453125 5.203125 C 190.4375 5.203125 193.417969 5.277344 196.398438 5.425781 C 199.375 5.570312 202.351562 5.789062 205.316406 6.082031 C 208.285156 6.375 211.246094 6.738281 214.195312 7.175781 C 217.144531 7.613281 220.085938 8.125 223.007812 8.707031 C 225.933594 9.289062 228.84375 9.941406 231.738281 10.667969 C 234.628906 11.390625 237.503906 12.1875 240.359375 13.050781 C 243.214844 13.917969 246.042969 14.851562 248.851562 15.859375 C 251.660156 16.863281 254.441406 17.9375 257.199219 19.078125 C 259.953125 20.21875 262.679688 21.425781 265.375 22.703125 C 268.074219 23.976562 270.734375 25.316406 273.367188 26.722656 C 275.996094 28.128906 278.589844 29.601562 281.148438 31.132812 C 283.707031 32.667969 286.226562 34.261719 288.707031 35.917969 C 291.1875 37.574219 293.625 39.292969 296.019531 41.070312 C 298.417969 42.847656 300.765625 44.679688 303.074219 46.574219 C 305.378906 48.464844 307.636719 50.414062 309.847656 52.417969 C 312.054688 54.417969 314.214844 56.476562 316.324219 58.585938 C 318.433594 60.691406 320.488281 62.851562 322.492188 65.0625 C 324.496094 67.273438 326.441406 69.53125 328.335938 71.835938 C 330.226562 74.140625 332.0625 76.492188 333.839844 78.886719 C 335.617188 81.285156 337.332031 83.722656 338.988281 86.203125 C 340.648438 88.683594 342.242188 91.199219 343.773438 93.757812 C 345.308594 96.316406 346.777344 98.910156 348.183594 101.542969 C 349.589844 104.171875 350.929688 106.835938 352.207031 109.53125 C 353.480469 112.230469 354.691406 114.953125 355.832031 117.710938 C 356.972656 120.464844 358.046875 123.246094 359.050781 126.054688 C 360.054688 128.863281 360.992188 131.695312 361.855469 134.550781 C 362.722656 137.402344 363.519531 140.277344 364.242188 143.171875 C 364.96875 146.066406 365.621094 148.972656 366.203125 151.898438 C 366.785156 154.824219 367.292969 157.761719 367.730469 160.710938 C 368.167969 163.664062 368.535156 166.621094 368.828125 169.589844 C 369.117188 172.558594 369.339844 175.53125 369.484375 178.511719 C 369.632812 181.492188 369.703125 184.472656 369.703125 187.453125 Z M 369.703125 187.453125 " fill-opacity="1" fill-rule="nonzero"/></g><path fill="#ffffff" d="M 179.886719 303.785156 C 158.144531 302.921875 137.429688 290.789062 123.3125 267.578125 C 117.457031 257.957031 118.824219 249.726562 126.367188 244.851562 C 133.804688 240.046875 141.878906 242.609375 147.691406 252.3125 C 157.558594 268.789062 171.929688 276.605469 190.867188 274.558594 C 208.46875 272.652344 220.667969 262.609375 226.453125 245.960938 C 232.746094 227.859375 227.84375 212.070312 214.292969 198.773438 C 200.65625 185.394531 187.015625 172.023438 173.535156 158.492188 C 164.8125 149.734375 163.921875 141.53125 170.554688 135.128906 C 176.976562 128.933594 184.921875 129.640625 193.242188 137.703125 C 208.3125 152.292969 223.773438 166.542969 237.984375 181.945312 C 259.074219 204.8125 263.15625 231.640625 251.765625 260.335938 C 241.273438 286.75 214.117188 303.988281 179.886719 303.785156 Z M 179.886719 303.785156 " fill-opacity="1" fill-rule="nonzero"/><g clip-path="url(#9475f2786a)"><path fill="#ffffff" d="M 111.738281 150.289062 C 111.632812 117.003906 132.691406 88.8125 164.261719 79.992188 C 195.476562 71.269531 229.273438 84.953125 245.515625 112.894531 C 251.613281 123.390625 250.6875 131.710938 242.878906 136.539062 C 235.0625 141.375 227.460938 138.484375 221.003906 127.925781 C 211.464844 112.328125 197.449219 105.03125 179.519531 106.566406 C 161.910156 108.070312 149.46875 117.785156 143.328125 134.351562 C 136.859375 151.789062 140.519531 167.664062 153.582031 180.925781 C 168.027344 195.597656 183.019531 209.730469 197.359375 224.503906 C 206.144531 233.554688 204.375 246.378906 193.769531 248.835938 C 188.914062 249.964844 181.484375 248.054688 177.78125 244.683594 C 161.453125 229.835938 145.734375 214.265625 130.425781 198.34375 C 117.691406 185.109375 111.921875 168.664062 111.738281 150.289062 Z M 111.738281 150.289062 " fill-opacity="1" fill-rule="nonzero"/></g></svg>