<svg xmlns="http://www.w3.org/2000/svg" xmlns:xlink="http://www.w3.org/1999/xlink" width="500" zoomAndPan="magnify" viewBox="0 0 375 374.999991" height="500" preserveAspectRatio="xMidYMid meet" version="1.0"><defs><clipPath id="ba3fda5cbc"><path d="M 91.414062 45 L 267 45 L 267 263 L 91.414062 263 Z M 91.414062 45 " clip-rule="nonzero"/></clipPath></defs><path fill="#6366f1" d="M 177.929688 331.679688 C 150.375 330.585938 124.121094 315.257812 106.226562 285.925781 C 98.808594 273.769531 100.542969 263.363281 110.101562 257.203125 C 119.527344 251.132812 129.761719 254.371094 137.128906 266.632812 C 149.628906 287.457031 167.84375 297.332031 191.84375 294.746094 C 214.152344 292.339844 229.613281 279.644531 236.941406 258.609375 C 244.917969 235.734375 238.703125 215.78125 221.53125 198.980469 C 204.25 182.074219 186.960938 165.175781 169.878906 148.074219 C 158.824219 137.011719 157.695312 126.644531 166.101562 118.550781 C 174.242188 110.726562 184.308594 111.617188 194.855469 121.804688 C 213.949219 140.242188 233.542969 158.25 251.554688 177.710938 C 278.285156 206.613281 283.457031 240.511719 269.023438 276.769531 C 255.726562 310.152344 221.308594 331.933594 177.929688 331.679688 Z M 177.929688 331.679688 " fill-opacity="1" fill-rule="nonzero"/><g clip-path="url(#ba3fda5cbc)"><path fill="#6366f1" d="M 91.5625 137.707031 C 91.429688 95.648438 118.113281 60.023438 158.125 48.875 C 197.6875 37.855469 240.515625 55.148438 261.097656 90.453125 C 268.828125 103.71875 267.65625 114.234375 257.761719 120.335938 C 247.851562 126.441406 238.21875 122.792969 230.035156 109.449219 C 217.949219 89.738281 200.183594 80.515625 177.460938 82.457031 C 155.144531 84.359375 139.378906 96.636719 131.597656 117.570312 C 123.398438 139.605469 128.039062 159.667969 144.589844 176.425781 C 162.898438 194.964844 181.898438 212.824219 200.074219 231.492188 C 211.207031 242.929688 208.960938 259.136719 195.523438 262.242188 C 189.367188 263.667969 179.949219 261.253906 175.261719 256.996094 C 154.566406 238.230469 134.644531 218.554688 115.246094 198.4375 C 99.105469 181.710938 91.792969 160.929688 91.5625 137.707031 Z M 91.5625 137.707031 " fill-opacity="1" fill-rule="nonzero"/></g></svg>