<svg xmlns="http://www.w3.org/2000/svg" xmlns:xlink="http://www.w3.org/1999/xlink" width="500" zoomAndPan="magnify" viewBox="0 0 375 374.999991" height="500" preserveAspectRatio="xMidYMid meet" version="1.0"><defs><clipPath id="32d23e406f"><path d="M 12.773438 12.773438 L 362.273438 12.773438 L 362.273438 362.273438 L 12.773438 362.273438 Z M 12.773438 12.773438 " clip-rule="nonzero"/></clipPath><clipPath id="84e9a4f9f1"><path d="M 20.210938 20.210938 L 354.710938 20.210938 L 354.710938 354.710938 L 20.210938 354.710938 Z M 20.210938 20.210938 " clip-rule="nonzero"/></clipPath><clipPath id="a0a89023f7"><path d="M 111.621094 77 L 250 77 L 250 250 L 111.621094 250 Z M 111.621094 77 " clip-rule="nonzero"/></clipPath></defs><g clip-path="url(#32d23e406f)"><path fill="#ffffff" d="M 362.273438 187.523438 C 362.273438 190.382812 362.203125 193.242188 362.0625 196.097656 C 361.921875 198.953125 361.710938 201.804688 361.433594 204.652344 C 361.152344 207.5 360.800781 210.335938 360.382812 213.164062 C 359.960938 215.992188 359.472656 218.808594 358.914062 221.617188 C 358.359375 224.421875 357.730469 227.210938 357.035156 229.984375 C 356.339844 232.757812 355.578125 235.515625 354.75 238.25 C 353.917969 240.988281 353.023438 243.703125 352.058594 246.394531 C 351.09375 249.085938 350.066406 251.753906 348.972656 254.398438 C 347.875 257.039062 346.71875 259.652344 345.496094 262.238281 C 344.273438 264.824219 342.988281 267.378906 341.640625 269.898438 C 340.289062 272.421875 338.882812 274.910156 337.410156 277.363281 C 335.941406 279.816406 334.410156 282.230469 332.824219 284.609375 C 331.234375 286.988281 329.585938 289.324219 327.882812 291.621094 C 326.179688 293.917969 324.421875 296.171875 322.605469 298.382812 C 320.792969 300.59375 318.925781 302.757812 317.003906 304.878906 C 315.085938 306.996094 313.113281 309.066406 311.089844 311.089844 C 309.066406 313.113281 306.996094 315.085938 304.878906 317.003906 C 302.757812 318.925781 300.59375 320.792969 298.382812 322.605469 C 296.171875 324.421875 293.917969 326.179688 291.621094 327.882812 C 289.324219 329.585938 286.988281 331.234375 284.609375 332.824219 C 282.230469 334.410156 279.816406 335.941406 277.363281 337.410156 C 274.910156 338.882812 272.421875 340.289062 269.898438 341.640625 C 267.378906 342.988281 264.824219 344.273438 262.238281 345.496094 C 259.652344 346.71875 257.039062 347.875 254.398438 348.972656 C 251.753906 350.066406 249.085938 351.09375 246.394531 352.058594 C 243.703125 353.023438 240.988281 353.917969 238.25 354.75 C 235.515625 355.578125 232.757812 356.339844 229.984375 357.035156 C 227.210938 357.730469 224.421875 358.359375 221.617188 358.914062 C 218.808594 359.472656 215.992188 359.960938 213.164062 360.382812 C 210.335938 360.800781 207.496094 361.152344 204.652344 361.433594 C 201.804688 361.710938 198.953125 361.921875 196.097656 362.0625 C 193.242188 362.203125 190.382812 362.273438 187.523438 362.273438 C 184.664062 362.273438 181.804688 362.203125 178.949219 362.0625 C 176.09375 361.921875 173.242188 361.710938 170.394531 361.433594 C 167.546875 361.152344 164.710938 360.800781 161.882812 360.382812 C 159.054688 359.960938 156.234375 359.472656 153.429688 358.914062 C 150.625 358.359375 147.835938 357.730469 145.0625 357.035156 C 142.289062 356.339844 139.53125 355.578125 136.796875 354.75 C 134.058594 353.917969 131.34375 353.023438 128.652344 352.058594 C 125.960938 351.09375 123.292969 350.066406 120.648438 348.972656 C 118.007812 347.875 115.394531 346.71875 112.808594 345.496094 C 110.222656 344.273438 107.667969 342.988281 105.148438 341.640625 C 102.625 340.289062 100.136719 338.882812 97.683594 337.410156 C 95.230469 335.941406 92.816406 334.410156 90.4375 332.824219 C 88.058594 331.234375 85.722656 329.585938 83.425781 327.882812 C 81.128906 326.179688 78.875 324.421875 76.664062 322.605469 C 74.453125 320.792969 72.289062 318.925781 70.167969 317.003906 C 68.050781 315.085938 65.980469 313.113281 63.957031 311.089844 C 61.933594 309.066406 59.960938 306.996094 58.042969 304.878906 C 56.121094 302.757812 54.253906 300.59375 52.441406 298.382812 C 50.625 296.171875 48.867188 293.917969 47.164062 291.621094 C 45.460938 289.324219 43.8125 286.988281 42.222656 284.609375 C 40.636719 282.230469 39.105469 279.816406 37.636719 277.363281 C 36.164062 274.910156 34.753906 272.421875 33.40625 269.898438 C 32.058594 267.378906 30.773438 264.824219 29.550781 262.238281 C 28.328125 259.652344 27.167969 257.039062 26.074219 254.398438 C 24.980469 251.753906 23.953125 249.085938 22.988281 246.394531 C 22.023438 243.703125 21.128906 240.988281 20.296875 238.25 C 19.46875 235.515625 18.707031 232.757812 18.011719 229.984375 C 17.316406 227.210938 16.6875 224.421875 16.132812 221.617188 C 15.574219 218.808594 15.085938 215.992188 14.664062 213.164062 C 14.246094 210.335938 13.894531 207.496094 13.613281 204.652344 C 13.335938 201.804688 13.125 198.953125 12.984375 196.097656 C 12.84375 193.242188 12.773438 190.382812 12.773438 187.523438 C 12.773438 184.664062 12.84375 181.804688 12.984375 178.949219 C 13.125 176.09375 13.335938 173.242188 13.613281 170.394531 C 13.894531 167.546875 14.246094 164.710938 14.664062 161.882812 C 15.085938 159.054688 15.574219 156.234375 16.132812 153.429688 C 16.6875 150.625 17.316406 147.835938 18.011719 145.0625 C 18.707031 142.289062 19.46875 139.53125 20.296875 136.796875 C 21.128906 134.058594 22.023438 131.34375 22.988281 128.652344 C 23.953125 125.960938 24.980469 123.292969 26.074219 120.648438 C 27.167969 118.007812 28.328125 115.394531 29.550781 112.808594 C 30.773438 110.222656 32.058594 107.667969 33.40625 105.148438 C 34.753906 102.625 36.164062 100.136719 37.636719 97.683594 C 39.105469 95.230469 40.636719 92.816406 42.222656 90.4375 C 43.8125 88.058594 45.460938 85.722656 47.164062 83.425781 C 48.867188 81.128906 50.625 78.875 52.441406 76.664062 C 54.253906 74.453125 56.121094 72.289062 58.042969 70.167969 C 59.960938 68.050781 61.933594 65.980469 63.957031 63.957031 C 65.980469 61.933594 68.050781 59.960938 70.167969 58.042969 C 72.289062 56.121094 74.453125 54.253906 76.664062 52.441406 C 78.875 50.625 81.128906 48.867188 83.425781 47.164062 C 85.722656 45.460938 88.058594 43.8125 90.4375 42.222656 C 92.816406 40.636719 95.230469 39.105469 97.683594 37.636719 C 100.136719 36.164062 102.625 34.753906 105.148438 33.40625 C 107.667969 32.058594 110.222656 30.773438 112.808594 29.550781 C 115.394531 28.328125 118.007812 27.167969 120.648438 26.074219 C 123.292969 24.980469 125.960938 23.953125 128.652344 22.988281 C 131.34375 22.023438 134.058594 21.128906 136.796875 20.296875 C 139.53125 19.46875 142.289062 18.707031 145.0625 18.011719 C 147.835938 17.316406 150.625 16.6875 153.429688 16.132812 C 156.234375 15.574219 159.054688 15.085938 161.882812 14.664062 C 164.710938 14.246094 167.546875 13.894531 170.394531 13.613281 C 173.242188 13.335938 176.09375 13.125 178.949219 12.984375 C 181.804688 12.84375 184.664062 12.773438 187.523438 12.773438 C 190.382812 12.773438 193.242188 12.84375 196.097656 12.984375 C 198.953125 13.125 201.804688 13.335938 204.652344 13.613281 C 207.496094 13.894531 210.335938 14.246094 213.164062 14.664062 C 215.992188 15.085938 218.808594 15.574219 221.617188 16.132812 C 224.421875 16.6875 227.210938 17.316406 229.984375 18.011719 C 232.757812 18.707031 235.515625 19.46875 238.25 20.296875 C 240.988281 21.128906 243.703125 22.023438 246.394531 22.988281 C 249.085938 23.953125 251.753906 24.980469 254.398438 26.074219 C 257.039062 27.167969 259.652344 28.328125 262.238281 29.550781 C 264.824219 30.773438 267.378906 32.058594 269.898438 33.40625 C 272.421875 34.753906 274.910156 36.164062 277.363281 37.636719 C 279.816406 39.105469 282.230469 40.636719 284.609375 42.222656 C 286.988281 43.8125 289.324219 45.460938 291.621094 47.164062 C 293.917969 48.867188 296.171875 50.625 298.382812 52.441406 C 300.59375 54.253906 302.757812 56.121094 304.878906 58.042969 C 306.996094 59.960938 309.066406 61.933594 311.089844 63.957031 C 313.113281 65.980469 315.085938 68.050781 317.003906 70.167969 C 318.925781 72.289062 320.792969 74.453125 322.605469 76.664062 C 324.421875 78.875 326.179688 81.128906 327.882812 83.425781 C 329.585938 85.722656 331.234375 88.058594 332.824219 90.4375 C 334.410156 92.816406 335.941406 95.230469 337.410156 97.683594 C 338.882812 100.136719 340.289062 102.625 341.640625 105.148438 C 342.988281 107.667969 344.273438 110.222656 345.496094 112.808594 C 346.71875 115.394531 347.875 118.007812 348.972656 120.648438 C 350.066406 123.292969 351.09375 125.960938 352.058594 128.652344 C 353.023438 131.34375 353.917969 134.058594 354.75 136.796875 C 355.578125 139.53125 356.339844 142.289062 357.035156 145.0625 C 357.730469 147.835938 358.359375 150.625 358.914062 153.429688 C 359.472656 156.234375 359.960938 159.054688 360.382812 161.882812 C 360.800781 164.710938 361.152344 167.546875 361.433594 170.394531 C 361.710938 173.242188 361.921875 176.09375 362.0625 178.949219 C 362.203125 181.804688 362.273438 184.664062 362.273438 187.523438 Z M 362.273438 187.523438 " fill-opacity="1" fill-rule="nonzero"/></g><g clip-path="url(#84e9a4f9f1)"><path fill="#6366f1" d="M 354.710938 187.460938 C 354.710938 190.195312 354.640625 192.933594 354.507812 195.667969 C 354.375 198.398438 354.171875 201.128906 353.902344 203.851562 C 353.636719 206.578125 353.300781 209.292969 352.898438 212 C 352.496094 214.707031 352.03125 217.402344 351.496094 220.089844 C 350.960938 222.773438 350.363281 225.441406 349.699219 228.097656 C 349.03125 230.753906 348.300781 233.390625 347.507812 236.011719 C 346.714844 238.628906 345.855469 241.226562 344.933594 243.804688 C 344.011719 246.382812 343.027344 248.933594 341.976562 251.464844 C 340.929688 253.992188 339.820312 256.492188 338.652344 258.96875 C 337.480469 261.441406 336.25 263.886719 334.960938 266.300781 C 333.671875 268.714844 332.320312 271.09375 330.914062 273.441406 C 329.507812 275.792969 328.042969 278.101562 326.523438 280.378906 C 325.003906 282.65625 323.425781 284.890625 321.796875 287.089844 C 320.164062 289.289062 318.480469 291.445312 316.746094 293.5625 C 315.007812 295.679688 313.222656 297.75 311.382812 299.777344 C 309.546875 301.804688 307.660156 303.789062 305.722656 305.722656 C 303.789062 307.660156 301.804688 309.546875 299.777344 311.382812 C 297.75 313.222656 295.679688 315.007812 293.5625 316.746094 C 291.445312 318.480469 289.289062 320.164062 287.089844 321.796875 C 284.890625 323.425781 282.65625 325.003906 280.378906 326.523438 C 278.101562 328.042969 275.792969 329.507812 273.441406 330.914062 C 271.09375 332.320312 268.714844 333.671875 266.300781 334.960938 C 263.886719 336.25 261.441406 337.480469 258.96875 338.652344 C 256.492188 339.820312 253.992188 340.929688 251.464844 341.976562 C 248.933594 343.027344 246.382812 344.011719 243.804688 344.933594 C 241.226562 345.855469 238.628906 346.714844 236.007812 347.507812 C 233.390625 348.300781 230.753906 349.03125 228.097656 349.699219 C 225.441406 350.363281 222.773438 350.960938 220.089844 351.496094 C 217.402344 352.03125 214.707031 352.496094 212 352.898438 C 209.292969 353.300781 206.578125 353.636719 203.851562 353.902344 C 201.128906 354.171875 198.398438 354.375 195.667969 354.507812 C 192.933594 354.640625 190.195312 354.710938 187.460938 354.710938 C 184.722656 354.710938 181.988281 354.640625 179.253906 354.507812 C 176.519531 354.375 173.789062 354.171875 171.066406 353.90625 C 168.34375 353.636719 165.625 353.300781 162.917969 352.898438 C 160.210938 352.496094 157.515625 352.03125 154.832031 351.496094 C 152.144531 350.960938 149.476562 350.363281 146.820312 349.699219 C 144.167969 349.03125 141.527344 348.300781 138.910156 347.507812 C 136.289062 346.714844 133.691406 345.855469 131.113281 344.933594 C 128.539062 344.011719 125.984375 343.027344 123.457031 341.976562 C 120.925781 340.929688 118.425781 339.820312 115.949219 338.652344 C 113.476562 337.480469 111.03125 336.25 108.617188 334.960938 C 106.203125 333.671875 103.824219 332.320312 101.476562 330.914062 C 99.128906 329.507812 96.816406 328.042969 94.539062 326.523438 C 92.265625 325.003906 90.027344 323.425781 87.828125 321.796875 C 85.628906 320.164062 83.472656 318.480469 81.355469 316.746094 C 79.242188 315.007812 77.167969 313.222656 75.140625 311.382812 C 73.113281 309.546875 71.132812 307.660156 69.195312 305.722656 C 67.261719 303.789062 65.375 301.804688 63.535156 299.777344 C 61.699219 297.75 59.910156 295.679688 58.171875 293.5625 C 56.4375 291.445312 54.753906 289.289062 53.125 287.089844 C 51.492188 284.890625 49.917969 282.65625 48.394531 280.378906 C 46.875 278.101562 45.410156 275.792969 44.003906 273.441406 C 42.597656 271.09375 41.25 268.714844 39.957031 266.300781 C 38.667969 263.886719 37.4375 261.441406 36.265625 258.96875 C 35.097656 256.492188 33.988281 253.992188 32.941406 251.464844 C 31.894531 248.933594 30.910156 246.382812 29.988281 243.804688 C 29.0625 241.226562 28.207031 238.628906 27.410156 236.007812 C 26.617188 233.390625 25.886719 230.753906 25.222656 228.097656 C 24.558594 225.441406 23.957031 222.773438 23.421875 220.089844 C 22.890625 217.402344 22.421875 214.707031 22.019531 212 C 21.617188 209.292969 21.285156 206.578125 21.015625 203.851562 C 20.746094 201.128906 20.546875 198.398438 20.410156 195.667969 C 20.277344 192.933594 20.210938 190.195312 20.210938 187.460938 C 20.210938 184.722656 20.277344 181.988281 20.410156 179.253906 C 20.546875 176.519531 20.746094 173.789062 21.015625 171.066406 C 21.285156 168.34375 21.617188 165.625 22.019531 162.917969 C 22.421875 160.210938 22.890625 157.515625 23.421875 154.832031 C 23.957031 152.144531 24.558594 149.476562 25.222656 146.820312 C 25.886719 144.167969 26.617188 141.527344 27.410156 138.910156 C 28.207031 136.289062 29.0625 133.691406 29.988281 131.113281 C 30.910156 128.539062 31.894531 125.984375 32.941406 123.457031 C 33.988281 120.925781 35.097656 118.425781 36.265625 115.949219 C 37.4375 113.476562 38.667969 111.03125 39.957031 108.617188 C 41.25 106.203125 42.597656 103.824219 44.003906 101.476562 C 45.410156 99.128906 46.875 96.816406 48.394531 94.539062 C 49.917969 92.265625 51.492188 90.027344 53.125 87.828125 C 54.753906 85.628906 56.4375 83.472656 58.171875 81.355469 C 59.910156 79.242188 61.699219 77.167969 63.535156 75.140625 C 65.375 73.113281 67.261719 71.132812 69.195312 69.195312 C 71.132812 67.261719 73.113281 65.375 75.140625 63.535156 C 77.167969 61.699219 79.242188 59.910156 81.355469 58.171875 C 83.472656 56.4375 85.628906 54.753906 87.828125 53.125 C 90.027344 51.492188 92.265625 49.917969 94.539062 48.394531 C 96.816406 46.875 99.128906 45.410156 101.476562 44.003906 C 103.824219 42.597656 106.203125 41.25 108.617188 39.957031 C 111.03125 38.667969 113.476562 37.4375 115.949219 36.265625 C 118.425781 35.097656 120.925781 33.988281 123.457031 32.941406 C 125.984375 31.894531 128.539062 30.910156 131.113281 29.988281 C 133.691406 29.0625 136.289062 28.207031 138.910156 27.410156 C 141.527344 26.617188 144.167969 25.886719 146.820312 25.222656 C 149.476562 24.558594 152.144531 23.957031 154.832031 23.421875 C 157.515625 22.890625 160.210938 22.421875 162.917969 22.019531 C 165.625 21.617188 168.34375 21.285156 171.066406 21.015625 C 173.789062 20.746094 176.519531 20.546875 179.253906 20.410156 C 181.988281 20.277344 184.722656 20.210938 187.460938 20.210938 C 190.195312 20.210938 192.933594 20.277344 195.667969 20.410156 C 198.398438 20.546875 201.128906 20.746094 203.851562 21.015625 C 206.578125 21.285156 209.292969 21.617188 212 22.019531 C 214.707031 22.421875 217.402344 22.890625 220.089844 23.421875 C 222.773438 23.957031 225.441406 24.558594 228.097656 25.222656 C 230.753906 25.886719 233.390625 26.617188 236.011719 27.410156 C 238.628906 28.207031 241.226562 29.0625 243.804688 29.988281 C 246.382812 30.910156 248.933594 31.894531 251.464844 32.941406 C 253.992188 33.988281 256.492188 35.097656 258.96875 36.265625 C 261.441406 37.4375 263.886719 38.667969 266.300781 39.957031 C 268.714844 41.25 271.09375 42.597656 273.441406 44.003906 C 275.792969 45.410156 278.101562 46.875 280.378906 48.394531 C 282.65625 49.917969 284.890625 51.492188 287.089844 53.125 C 289.289062 54.753906 291.445312 56.4375 293.5625 58.171875 C 295.679688 59.910156 297.75 61.699219 299.777344 63.535156 C 301.804688 65.375 303.789062 67.261719 305.722656 69.195312 C 307.660156 71.132812 309.546875 73.113281 311.382812 75.140625 C 313.222656 77.167969 315.007812 79.242188 316.746094 81.355469 C 318.480469 83.472656 320.164062 85.628906 321.796875 87.828125 C 323.425781 90.027344 325.003906 92.265625 326.523438 94.539062 C 328.042969 96.816406 329.507812 99.128906 330.914062 101.476562 C 332.320312 103.824219 333.671875 106.203125 334.960938 108.617188 C 336.25 111.03125 337.480469 113.476562 338.652344 115.949219 C 339.820312 118.425781 340.929688 120.925781 341.976562 123.457031 C 343.027344 125.984375 344.011719 128.539062 344.933594 131.113281 C 345.855469 133.691406 346.714844 136.289062 347.507812 138.910156 C 348.300781 141.527344 349.03125 144.167969 349.699219 146.820312 C 350.363281 149.476562 350.960938 152.144531 351.496094 154.832031 C 352.03125 157.515625 352.496094 160.210938 352.898438 162.917969 C 353.300781 165.625 353.636719 168.34375 353.90625 171.066406 C 354.171875 173.789062 354.375 176.519531 354.507812 179.253906 C 354.640625 181.988281 354.710938 184.722656 354.710938 187.460938 Z M 354.710938 187.460938 " fill-opacity="1" fill-rule="nonzero"/></g><path fill="#ffffff" d="M 179.886719 303.785156 C 158.144531 302.921875 137.429688 290.789062 123.3125 267.578125 C 117.457031 257.957031 118.824219 249.726562 126.367188 244.851562 C 133.804688 240.046875 141.878906 242.609375 147.691406 252.3125 C 157.558594 268.789062 171.929688 276.605469 190.867188 274.558594 C 208.46875 272.652344 220.667969 262.609375 226.453125 245.960938 C 232.746094 227.859375 227.84375 212.070312 214.292969 198.773438 C 200.65625 185.394531 187.015625 172.023438 173.535156 158.492188 C 164.8125 149.734375 163.921875 141.53125 170.554688 135.128906 C 176.976562 128.933594 184.921875 129.640625 193.242188 137.703125 C 208.3125 152.292969 223.773438 166.542969 237.984375 181.945312 C 259.074219 204.8125 263.15625 231.640625 251.765625 260.335938 C 241.273438 286.75 214.117188 303.988281 179.886719 303.785156 Z M 179.886719 303.785156 " fill-opacity="1" fill-rule="nonzero"/><g clip-path="url(#a0a89023f7)"><path fill="#ffffff" d="M 111.738281 150.289062 C 111.632812 117.003906 132.691406 88.8125 164.261719 79.992188 C 195.476562 71.269531 229.273438 84.953125 245.515625 112.894531 C 251.613281 123.390625 250.6875 131.710938 242.878906 136.539062 C 235.0625 141.375 227.460938 138.484375 221.003906 127.925781 C 211.464844 112.328125 197.449219 105.03125 179.519531 106.566406 C 161.910156 108.070312 149.46875 117.785156 143.328125 134.351562 C 136.859375 151.789062 140.519531 167.664062 153.582031 180.925781 C 168.027344 195.597656 183.019531 209.730469 197.359375 224.503906 C 206.144531 233.554688 204.375 246.378906 193.769531 248.835938 C 188.914062 249.964844 181.484375 248.054688 177.78125 244.683594 C 161.453125 229.835938 145.734375 214.265625 130.425781 198.34375 C 117.691406 185.109375 111.921875 168.664062 111.738281 150.289062 Z M 111.738281 150.289062 " fill-opacity="1" fill-rule="nonzero"/></g></svg>